# xmcd
# 
# Track frame offsets:
#	150
#	11344
#	26104
#	37099
#	52400
#	62636
#	78605
#	93293
#	105667
#	121814
#	134719
#	149591
#
# Disc length: 2214 seconds
#
# Revision: 1
# Processed by: cddbd v1.4PL0 Copyright (c) Steve Scherf et al.
# Submitted via: Audio-CD-Archiv 2.10.438
#
DISCID=af08a40c
DTITLE=Perry Como - Como's Golden Hits
DYEAR=1900
DGENRE=blues
TTITLE0=Catch A Falling Star
TTITLE1=No other Love
TTITLE2=Delaware
TTITLE3=Come rain Or Come Shine
TTITLE4=I've Got You Under My Skin
TTITLE5=Begin The Beguine
TTITLE6=Till The End Of Time
TTITLE7=Don't Let The Stars Get In Your eyes
TTITLE8=Some Enchanted Evening
TTITLE9=Song Of Songs
TTITLE10=How Insensitive
TTITLE11=Arrivederci Roma
EXTD=
EXTT0=
EXTT1=
EXTT2=
EXTT3=
EXTT4=
EXTT5=
EXTT6=
EXTT7=
EXTT8=
EXTT9=
EXTT10=
EXTT11=
PLAYORDER=
